<svg width="10" height="18" viewBox="0 0 10 18" fill="none" xmlns="http://www.w3.org/2000/svg">
<path d="M0.351562 7.85156C0.117188 8.11198 0 8.41146 0 8.75C0 9.08854 0.117188 9.38802 0.351562 9.64844L7.85156 17.1484C8.11198 17.3828 8.41146 17.5 8.75 17.5C9.08854 17.5 9.38802 17.3828 9.64844 17.1484C9.88281 16.888 10 16.5885 10 16.25C10 15.9115 9.88281 15.612 9.64844 15.3516L3.00781 8.75L9.64844 2.14844C9.88281 1.88802 10 1.58854 10 1.25C10 0.911458 9.88281 0.611979 9.64844 0.351562C9.38802 0.117188 9.08854 0 8.75 0C8.41146 0 8.11198 0.117188 7.85156 0.351562L0.351562 7.85156Z" fill="#1F2937"/>
</svg>
