<svg width="19" height="19" viewBox="0 0 19 19" fill="none" xmlns="http://www.w3.org/2000/svg">
<path d="M9.49996 9.49996C8.19371 9.49996 7.07549 9.03486 6.14529 8.10465C5.21508 7.17445 4.74998 6.05622 4.74998 4.74998C4.74998 3.44373 5.21508 2.32551 6.14529 1.39531C7.07549 0.465102 8.19371 0 9.49996 0C10.8062 0 11.9244 0.465102 12.8546 1.39531C13.7848 2.32551 14.2499 3.44373 14.2499 4.74998C14.2499 6.05622 13.7848 7.17445 12.8546 8.10465C11.9244 9.03486 10.8062 9.49996 9.49996 9.49996ZM0 18.9999V15.6749C0 15.002 0.173176 14.3835 0.519529 13.8195C0.865882 13.2554 1.32604 12.8249 1.89999 12.5281C3.12707 11.9145 4.37394 11.4544 5.6406 11.1476C6.90726 10.8408 8.19371 10.6875 9.49996 10.6875C10.8062 10.6875 12.0927 10.8408 13.3593 11.1476C14.626 11.4544 15.8728 11.9145 17.0999 12.5281C17.6739 12.8249 18.134 13.2554 18.4804 13.8195C18.8267 14.3835 18.9999 15.002 18.9999 15.6749V18.9999H0ZM2.37499 16.6249H16.6249V15.6749C16.6249 15.4572 16.5705 15.2593 16.4616 15.0812C16.3528 14.9031 16.2093 14.7645 16.0312 14.6656C14.9624 14.1312 13.8838 13.7304 12.7953 13.4632C11.7067 13.196 10.6083 13.0624 9.49996 13.0624C8.39163 13.0624 7.2932 13.196 6.20466 13.4632C5.11612 13.7304 4.03748 14.1312 2.96874 14.6656C2.79061 14.7645 2.64712 14.9031 2.53827 15.0812C2.42942 15.2593 2.37499 15.4572 2.37499 15.6749V16.6249ZM9.49996 7.12497C10.1531 7.12497 10.7122 6.89242 11.1773 6.42732C11.6424 5.96221 11.8749 5.4031 11.8749 4.74998C11.8749 4.09686 11.6424 3.53774 11.1773 3.07264C10.7122 2.60754 10.1531 2.37499 9.49996 2.37499C8.84684 2.37499 8.28772 2.60754 7.82262 3.07264C7.35752 3.53774 7.12497 4.09686 7.12497 4.74998C7.12497 5.4031 7.35752 5.96221 7.82262 6.42732C8.28772 6.89242 8.84684 7.12497 9.49996 7.12497Z" fill="#1B1D11" fill-opacity="0.6"/>
</svg>
